<svg xmlns="http://www.w3.org/2000/svg" viewBox="0 0 90.12 83.52"><defs><style>.cls-1{fill:#fff}.cls-2{fill:#d0ebfc}.cls-3{fill:#59aae2}.cls-4{fill:#63bcf7}.cls-5{fill:#488abc}.cls-6{fill:#3e7aa9}.cls-7{fill:#82c9f8}.cls-8{fill:#b1ddfb}</style></defs><title>1Artboard 90</title><g id="gem_11" data-name="gem 11"><path class="cls-1" d="M44.83 0l-26.9 2.83L0 30.67l44.83 52.85 45.29-52.85-18.4-27.84L44.83 0z"/><path class="cls-2" d="M67.76 7.15L44.94 4.71 22.13 7.15 6.64 30.79l38.3 44.81 38.3-44.81L67.76 7.15z"/><path class="cls-3" d="M44.94 75.6l22.82-44.81H22.13L44.94 75.6z"/><path class="cls-4" d="M44.94 4.71l22.82 26.08H22.13L44.94 4.71z"/><path class="cls-5" d="M83.24 30.79L44.94 75.6l22.82-44.81h15.48z"/><path class="cls-6" d="M67.76 7.15v23.64h15.48L67.76 7.15z"/><path class="cls-3" d="M44.94 4.71l22.82 2.44v23.64L44.94 4.71z"/><path class="cls-7" d="M6.64 30.79l38.3 44.81-22.81-44.81H6.64z"/><path class="cls-8" d="M22.13 7.15v23.64H6.64L22.13 7.15z"/><path class="cls-2" d="M22.13 30.79L44.94 4.71 22.13 7.15v23.64z"/></g></svg>