<svg xmlns="http://www.w3.org/2000/svg" viewBox="0 0 90.12 83.52"><defs><style>.cls-1{fill:#fff}.cls-2{fill:#ffe3c3}.cls-3{fill:#ac92e8}.cls-4{fill:#e6c128}.cls-5{fill:#d0ebfc}.cls-6{fill:#e69337}.cls-7{fill:#fb788f}.cls-8{fill:#80cb05}.cls-9{fill:#ffd527}.cls-10{fill:#ffaa35}.cls-11{fill:#8ee000}.cls-12{fill:#66a310}.cls-13{fill:#9c892c}.cls-14{fill:#589015}.cls-15{fill:#7ac208}.cls-16{fill:#a4e633}.cls-17{fill:#ffdd52}.cls-18{fill:#ffb45f}.cls-19{fill:#ffd09b}</style></defs><title>1Artboard 170</title><g id="gem_1" data-name="gem 1"><path class="cls-1" d="M44.83 0l-26.9 2.83L0 30.67l44.83 52.85 45.29-52.85-18.4-27.84L44.83 0z"/><path class="cls-2" d="M73.98 16.64l-6.22-9.49-15.74-1.68-7.08-.76-22.81 2.44L6.64 30.79l11.97 13.99 15.76 18.45L44.94 75.6l38.3-44.81-9.26-14.15z"/><path class="cls-3" d="M67.76 7.15L52.02 5.47l-3.16 3.72-18.36 21.6-5.24 6.16-6.65 7.83 15.76 18.45 2.68-3.14 24.9-29.3 2.86-3.37 2.95-3.47 6.22-7.31-6.22-9.49z"/><path class="cls-4" d="M30.5 30.79l-5.24 6.16 11.79 23.14 24.9-29.3H30.5z"/><path class="cls-5" d="M44.94 4.71L22.13 7.15 6.64 30.79l11.97 13.99 6.65-7.83 5.24-6.16 18.36-21.6 3.16-3.72-7.08-.76z"/><path class="cls-6" d="M22.13 30.79l3.13 6.16 5.24-6.16h-8.37z"/><path class="cls-7" d="M73.98 16.64l-6.22 7.31-2.95 3.47-2.86 3.37-24.9 29.3-2.68 3.14L44.94 75.6l38.3-44.81-9.26-14.15z"/><path class="cls-8" d="M61.95 30.79l-24.9 29.3 7.89 15.51 22.82-44.81h-5.81z"/><path class="cls-9" d="M64.81 27.42L48.86 9.19 30.5 30.79h31.45l2.86-3.37z"/><path class="cls-10" d="M30.5 30.79l18.36-21.6-3.92-4.48-22.81 26.08h8.37z"/><path class="cls-11" d="M67.76 30.79l-2.95-3.37-2.86 3.37h5.81z"/><path class="cls-12" d="M44.94 75.6l38.3-44.81H67.76L44.94 75.6z"/><path class="cls-13" d="M73.98 16.64l-6.22-9.49v16.8l6.22-7.31z"/><path class="cls-14" d="M67.76 30.79h15.48l-9.26-14.15-6.22 7.31v6.84z"/><path class="cls-4" d="M64.81 27.42l2.95-3.47V7.15L52.02 5.47l-3.16 3.72 15.95 18.23z"/><path class="cls-15" d="M67.76 23.95l-2.95 3.47 2.95 3.37v-6.84z"/><path class="cls-6" d="M52.02 5.47l-7.08-.76 3.92 4.48 3.16-3.72z"/><path class="cls-16" d="M37.05 60.09l-2.68 3.14L44.94 75.6l-7.89-15.51z"/><path class="cls-17" d="M25.26 36.95l-6.65 7.83 15.76 18.45 2.68-3.14-11.79-23.14z"/><path class="cls-18" d="M22.13 30.79H6.64l11.97 13.99 6.65-7.83-3.13-6.16z"/><path class="cls-19" d="M22.13 7.15L6.64 30.79h15.49V7.15z"/><path class="cls-2" d="M44.94 4.71L22.13 7.15v23.64L44.94 4.71z"/></g></svg>